<?xml version="1.0" encoding="UTF-8"?>
<svg width="848px" height="109px" viewBox="0 0 848 109" version="1.1" xmlns="http://www.w3.org/2000/svg" xmlns:xlink="http://www.w3.org/1999/xlink">
    <!-- Generator: Sketch 46 (44423) - http://www.bohemiancoding.com/sketch -->
    <title>Group</title>
    <desc>Created with Sketch.</desc>
    <defs></defs>
    <g id="Page-1" stroke="none" stroke-width="1" fill="none" fill-rule="evenodd">
        <g id="Play-Again-Screen" transform="translate(-300.000000, -237.000000)">
            <g id="Group" transform="translate(300.000000, 237.000000)">
                <path d="M0.207,102.793 C0.207,105.935 1.391,108.486 2.853,108.486 L127.024,108.486 C128.483,108.486 129.669,105.935 129.669,102.793 L129.669,33.083 C129.669,29.94 128.483,27.392 127.024,27.392 L2.853,27.392 C1.391,27.392 0.207,29.94 0.207,33.083 L22.969,68.64 L0.207,102.793" id="Fill-396" fill="#92402A"></path>
                <path d="M0.207,94.258 C0.207,97.4 1.391,99.949 2.853,99.949 L127.024,99.949 C128.483,99.949 129.669,97.4 129.669,94.258 L129.669,24.546 C129.669,21.405 128.483,18.857 127.024,18.857 L2.853,18.857 C1.391,18.857 0.207,21.405 0.207,24.546 L22.969,61.086 L0.207,94.258" id="Fill-397" fill="#F7F5F3"></path>
                <polyline id="Fill-398" fill="#92402A" points="61.837 89.803 124.034 101.495 129.724 100.608 129.724 58.549 62.209 53.126 61.837 89.803"></polyline>
                <path d="M847.664,102.793 C847.664,105.935 846.479,108.486 845.018,108.486 L720.847,108.486 C719.388,108.486 718.202,105.935 718.202,102.793 L718.202,33.083 C718.202,29.94 719.388,27.392 720.847,27.392 L845.018,27.392 C846.479,27.392 847.664,29.94 847.664,33.083 L824.9,68.64 L847.664,102.793" id="Fill-399" fill="#92402A"></path>
                <path d="M847.664,94.258 C847.664,97.4 846.479,99.949 845.018,99.949 L720.847,99.949 C719.388,99.949 718.202,97.4 718.202,94.258 L718.202,24.546 C718.202,21.405 719.388,18.857 720.847,18.857 L845.018,18.857 C846.479,18.857 847.664,21.405 847.664,24.546 L824.9,61.086 L847.664,94.258" id="Fill-400" fill="#F7F5F3"></path>
                <polyline id="Fill-401" fill="#92402A" points="786.031 89.803 723.836 101.495 718.143 100.608 718.143 58.549 785.663 53.126 786.031 89.803"></polyline>
                <path d="M786.515625,84.299 C786.515625,87.441 782.780907,89.991 778.169331,89.991 L69.6052945,89.991 C64.9981165,89.991 61.259,87.441 61.259,84.299 L61.259,14.588 C61.259,11.447 64.9981165,8.899 69.6052945,8.899 L778.169331,8.899 C782.780907,8.899 786.515625,11.447 786.515625,14.588 L786.515625,84.299" id="Fill-402" fill="#92402A"></path>
                <path d="M786.515625,75.851 C786.515625,78.994 782.780907,81.541 778.169331,81.541 L69.6052945,81.541 C64.9981165,81.541 61.259,78.994 61.259,75.851 L61.259,6.142 C61.259,3 64.9981165,0.454 69.6052945,0.454 L778.169331,0.454 C782.780907,0.454 786.515625,3 786.515625,6.142 L786.515625,75.851" id="Fill-403" fill="#F7F5F3"></path>
            </g>
        </g>
    </g>
</svg>