<?xml version="1.0" encoding="UTF-8"?>
<svg width="365px" height="21px" viewBox="0 0 365 21" version="1.1" xmlns="http://www.w3.org/2000/svg" xmlns:xlink="http://www.w3.org/1999/xlink">
    <!-- Generator: Sketch 46 (44423) - http://www.bohemiancoding.com/sketch -->
    <title>Rock Paper Scissor x</title>
    <desc>Created with Sketch.</desc>
    <defs></defs>
    <g id="Page-1" stroke="none" stroke-width="1" fill="none" fill-rule="evenodd">
        <g id="Start-Screen" transform="translate(-541.000000, -26.000000)" fill="#E16A40">
            <path d="M547.785945,31.96 L547.785945,35.288 L549.735945,35.288 C550.186614,35.288 550.489944,35.1710012 550.645945,34.937 C550.801946,34.7029988 550.879945,34.4126684 550.879945,34.066 L550.879945,33.182 C550.879945,32.8353316 550.801946,32.5450012 550.645945,32.311 C550.489944,32.0769988 550.186614,31.96 549.735945,31.96 L547.785945,31.96 Z M546.849945,46 L542.845945,46 C542.51661,46 542.278279,45.9263341 542.130945,45.779 C541.983611,45.6316659 541.909945,45.393335 541.909945,45.064 L541.909945,28.216 C541.909945,27.886665 541.983611,27.6483341 542.130945,27.501 C542.278279,27.3536659 542.51661,27.28 542.845945,27.28 L551.503945,27.28 C553.445288,27.28 554.784274,27.682996 555.520945,28.489 C556.257615,29.295004 556.625945,30.3393269 556.625945,31.622 L556.625945,32.818 C556.625945,33.5460036 556.517613,34.1656641 556.300945,34.677 C556.084277,35.1883359 555.707281,35.5566655 555.169945,35.782 C556.105949,35.8860005 556.864275,36.26733 557.444945,36.926 C558.025614,37.58467 558.315945,38.4599945 558.315945,39.552 L558.315945,45.064 C558.315945,45.393335 558.242279,45.6316659 558.094945,45.779 C557.947611,45.9263341 557.70928,46 557.379945,46 L553.349945,46 C553.02061,46 552.782279,45.9263341 552.634945,45.779 C552.487611,45.6316659 552.413945,45.393335 552.413945,45.064 L552.413945,41.086 C552.413945,40.7046648 552.340279,40.4230009 552.192945,40.241 C552.045611,40.0589991 551.789947,39.968 551.425945,39.968 L547.785945,39.968 L547.785945,45.064 C547.785945,45.393335 547.712279,45.6316659 547.564945,45.779 C547.417611,45.9263341 547.17928,46 546.849945,46 Z M577.290167,41.086 C577.290167,41.8833373 577.173168,42.6069968 576.939167,43.257 C576.705166,43.9070033 576.28917,44.4616644 575.691167,44.921 C575.093164,45.3803356 574.269839,45.7399987 573.221167,46 C572.172495,46.2600013 570.842175,46.39 569.230167,46.39 C567.618159,46.39 566.283506,46.2600013 565.226167,46 C564.168828,45.7399987 563.34117,45.3803356 562.743167,44.921 C562.145164,44.4616644 561.729168,43.9070033 561.495167,43.257 C561.261166,42.6069968 561.144167,41.8833373 561.144167,41.086 L561.144167,32.22 C561.144167,31.4226627 561.261166,30.6990033 561.495167,30.049 C561.729168,29.3989967 562.145164,28.8400023 562.743167,28.372 C563.34117,27.9039977 564.168828,27.5400013 565.226167,27.28 C566.283506,27.0199987 567.618159,26.89 569.230167,26.89 C570.842175,26.89 572.172495,27.0199987 573.221167,27.28 C574.269839,27.5400013 575.093164,27.9039977 575.691167,28.372 C576.28917,28.8400023 576.705166,29.3989967 576.939167,30.049 C577.173168,30.6990033 577.290167,31.4226627 577.290167,32.22 L577.290167,41.086 Z M567.046167,40.15 C567.046167,40.4966684 567.176166,40.7869988 567.436167,41.021 C567.696168,41.2550012 568.294162,41.372 569.230167,41.372 C570.166172,41.372 570.764166,41.2550012 571.024167,41.021 C571.284168,40.7869988 571.414167,40.4966684 571.414167,40.15 L571.414167,33.156 C571.414167,32.826665 571.284168,32.5450012 571.024167,32.311 C570.764166,32.0769988 570.166172,31.96 569.230167,31.96 C568.294162,31.96 567.696168,32.0769988 567.436167,32.311 C567.176166,32.5450012 567.046167,32.826665 567.046167,33.156 L567.046167,40.15 Z M593.378389,46 L587.034389,46 C584.867712,46 583.260061,45.566671 582.211389,44.7 C581.162717,43.833329 580.638389,42.4986757 580.638389,40.696 L580.638389,32.61 C580.638389,30.8073243 581.162717,29.4683377 582.211389,28.593 C583.260061,27.7176623 584.867712,27.28 587.034389,27.28 L593.378389,27.28 C593.707724,27.28 593.946055,27.3536659 594.093389,27.501 C594.240723,27.6483341 594.314389,27.886665 594.314389,28.216 L594.314389,31.362 C594.314389,31.691335 594.240723,31.9296659 594.093389,32.077 C593.946055,32.2243341 593.707724,32.298 593.378389,32.298 L588.152389,32.298 C587.615053,32.298 587.21639,32.4063322 586.956389,32.623 C586.696388,32.8396678 586.566389,33.1646645 586.566389,33.598 L586.566389,39.786 C586.566389,40.2193355 586.696388,40.5356657 586.956389,40.735 C587.21639,40.9343343 587.615053,41.034 588.152389,41.034 L593.378389,41.034 C593.707724,41.034 593.946055,41.1076659 594.093389,41.255 C594.240723,41.4023341 594.314389,41.640665 594.314389,41.97 L594.314389,45.064 C594.314389,45.393335 594.240723,45.6316659 594.093389,45.779 C593.946055,45.9263341 593.707724,46 593.378389,46 Z M602.550611,46 L598.520611,46 C598.191276,46 597.952945,45.9263341 597.805611,45.779 C597.658277,45.6316659 597.584611,45.393335 597.584611,45.064 L597.584611,28.216 C597.584611,27.886665 597.658277,27.6483341 597.805611,27.501 C597.952945,27.3536659 598.191276,27.28 598.520611,27.28 L602.550611,27.28 C602.879946,27.28 603.118277,27.3536659 603.265611,27.501 C603.412945,27.6483341 603.486611,27.886665 603.486611,28.216 L603.486611,34.196 L604.526611,34.196 L607.204611,28.138 C607.325945,27.8259984 607.49061,27.6050007 607.698611,27.475 C607.906612,27.3449993 608.175276,27.28 608.504611,27.28 L612.508611,27.28 C612.803279,27.28 613.002611,27.3536659 613.106611,27.501 C613.210612,27.6483341 613.201945,27.8606653 613.080611,28.138 L610.428611,34.196 C611.399283,34.2480003 612.174942,34.5903302 612.755611,35.223 C613.336281,35.8556698 613.626611,36.6919948 613.626611,37.732 L613.626611,45.064 C613.626611,45.393335 613.552945,45.6316659 613.405611,45.779 C613.258277,45.9263341 613.019946,46 612.690611,46 L608.686611,46 C608.357276,46 608.118945,45.9263341 607.971611,45.779 C607.824277,45.6316659 607.750611,45.393335 607.750611,45.064 L607.750611,39.994 C607.750611,39.7166653 607.681279,39.5000008 607.542611,39.344 C607.403944,39.1879992 607.195946,39.11 606.918611,39.11 L603.486611,39.11 L603.486611,45.064 C603.486611,45.393335 603.412945,45.6316659 603.265611,45.779 C603.118277,45.9263341 602.879946,46 602.550611,46 Z M628.461056,46 L624.431056,46 C624.101721,46 623.86339,45.9263341 623.716056,45.779 C623.568722,45.6316659 623.495056,45.393335 623.495056,45.064 L623.495056,28.216 C623.495056,27.886665 623.568722,27.6483341 623.716056,27.501 C623.86339,27.3536659 624.101721,27.28 624.431056,27.28 L632.387056,27.28 C634.744401,27.28 636.356385,27.7479953 637.223056,28.684 C638.089727,29.6200047 638.523056,30.8419925 638.523056,32.35 L638.523056,35.678 C638.523056,37.1860075 638.089727,38.4079953 637.223056,39.344 C636.356385,40.2800047 634.744401,40.748 632.387056,40.748 L629.397056,40.748 L629.397056,45.064 C629.397056,45.393335 629.32339,45.6316659 629.176056,45.779 C629.028722,45.9263341 628.790391,46 628.461056,46 Z M629.345056,32.142 L629.345056,36.068 L631.685056,36.068 C632.187725,36.068 632.517055,35.9380013 632.673056,35.678 C632.829057,35.4179987 632.907056,35.123335 632.907056,34.794 L632.907056,33.416 C632.907056,33.086665 632.829057,32.7920013 632.673056,32.532 C632.517055,32.2719987 632.187725,32.142 631.685056,32.142 L629.345056,32.142 Z M648.085278,32.74 L646.863278,36.692 L650.945278,36.692 L649.723278,32.74 C649.653944,32.5839992 649.580278,32.4713337 649.502278,32.402 C649.424278,32.3326663 649.333278,32.298 649.229278,32.298 L648.579278,32.298 C648.475277,32.298 648.384278,32.3326663 648.306278,32.402 C648.228278,32.4713337 648.154612,32.5839992 648.085278,32.74 Z M646.603278,45.064 C646.603278,45.393335 646.529612,45.6316659 646.382278,45.779 C646.234944,45.9263341 645.996613,46 645.667278,46 L641.845278,46 C641.515943,46 641.277612,45.9263341 641.130278,45.779 C640.982944,45.6316659 640.909278,45.393335 640.909278,45.064 L640.909278,38.2 C640.909278,37.6799974 640.99161,37.0820034 641.156278,36.406 C641.320945,35.7299966 641.57661,34.9413378 641.923278,34.04 L644.185278,28.138 C644.289278,27.8433319 644.44961,27.6266674 644.666278,27.488 C644.882946,27.3493326 645.16461,27.28 645.511278,27.28 L652.505278,27.28 C652.834613,27.28 653.10761,27.3493326 653.324278,27.488 C653.540946,27.6266674 653.701277,27.8433319 653.805278,28.138 L656.067278,34.04 C656.413946,34.9413378 656.66961,35.7299966 656.834278,36.406 C656.998945,37.0820034 657.081278,37.6799974 657.081278,38.2 L657.081278,45.064 C657.081278,45.393335 657.007612,45.6316659 656.860278,45.779 C656.712944,45.9263341 656.474613,46 656.145278,46 L652.219278,46 C651.87261,46 651.616945,45.9263341 651.452278,45.779 C651.28761,45.6316659 651.205278,45.393335 651.205278,45.064 L651.205278,41.424 L646.603278,41.424 L646.603278,45.064 Z M665.5775,46 L661.5475,46 C661.218165,46 660.979834,45.9263341 660.8325,45.779 C660.685166,45.6316659 660.6115,45.393335 660.6115,45.064 L660.6115,28.216 C660.6115,27.886665 660.685166,27.6483341 660.8325,27.501 C660.979834,27.3536659 661.218165,27.28 661.5475,27.28 L669.5035,27.28 C671.860845,27.28 673.472829,27.7479953 674.3395,28.684 C675.206171,29.6200047 675.6395,30.8419925 675.6395,32.35 L675.6395,35.678 C675.6395,37.1860075 675.206171,38.4079953 674.3395,39.344 C673.472829,40.2800047 671.860845,40.748 669.5035,40.748 L666.5135,40.748 L666.5135,45.064 C666.5135,45.393335 666.439834,45.6316659 666.2925,45.779 C666.145166,45.9263341 665.906835,46 665.5775,46 Z M666.4615,32.142 L666.4615,36.068 L668.8015,36.068 C669.304169,36.068 669.633499,35.9380013 669.7895,35.678 C669.945501,35.4179987 670.0235,35.123335 670.0235,34.794 L670.0235,33.416 C670.0235,33.086665 669.945501,32.7920013 669.7895,32.532 C669.633499,32.2719987 669.304169,32.142 668.8015,32.142 L666.4615,32.142 Z M691.675722,46 L679.611722,46 C679.282387,46 679.044056,45.9263341 678.896722,45.779 C678.749388,45.6316659 678.675722,45.393335 678.675722,45.064 L678.675722,28.216 C678.675722,27.886665 678.749388,27.6483341 678.896722,27.501 C679.044056,27.3536659 679.282387,27.28 679.611722,27.28 L691.675722,27.28 C692.005057,27.28 692.243388,27.3536659 692.390722,27.501 C692.538056,27.6483341 692.611722,27.886665 692.611722,28.216 L692.611722,31.258 C692.611722,31.587335 692.538056,31.8256659 692.390722,31.973 C692.243388,32.1203341 692.005057,32.194 691.675722,32.194 L684.499722,32.194 L684.499722,34.196 L689.569722,34.196 C689.899057,34.196 690.137388,34.2696659 690.284722,34.417 C690.432056,34.5643341 690.505722,34.802665 690.505722,35.132 L690.505722,37.914 C690.505722,38.243335 690.432056,38.4816659 690.284722,38.629 C690.137388,38.7763341 689.899057,38.85 689.569722,38.85 L684.499722,38.85 L684.499722,41.086 L691.675722,41.086 C692.005057,41.086 692.243388,41.1596659 692.390722,41.307 C692.538056,41.4543341 692.611722,41.692665 692.611722,42.022 L692.611722,45.064 C692.611722,45.393335 692.538056,45.6316659 692.390722,45.779 C692.243388,45.9263341 692.005057,46 691.675722,46 Z M701.887945,31.96 L701.887945,35.288 L703.837945,35.288 C704.288613,35.288 704.591944,35.1710012 704.747945,34.937 C704.903945,34.7029988 704.981945,34.4126684 704.981945,34.066 L704.981945,33.182 C704.981945,32.8353316 704.903945,32.5450012 704.747945,32.311 C704.591944,32.0769988 704.288613,31.96 703.837945,31.96 L701.887945,31.96 Z M700.951945,46 L696.947945,46 C696.61861,46 696.380279,45.9263341 696.232945,45.779 C696.08561,45.6316659 696.011945,45.393335 696.011945,45.064 L696.011945,28.216 C696.011945,27.886665 696.08561,27.6483341 696.232945,27.501 C696.380279,27.3536659 696.61861,27.28 696.947945,27.28 L705.605945,27.28 C707.547288,27.28 708.886274,27.682996 709.622945,28.489 C710.359615,29.295004 710.727945,30.3393269 710.727945,31.622 L710.727945,32.818 C710.727945,33.5460036 710.619612,34.1656641 710.402945,34.677 C710.186277,35.1883359 709.809281,35.5566655 709.271945,35.782 C710.207949,35.8860005 710.966275,36.26733 711.546945,36.926 C712.127614,37.58467 712.417945,38.4599945 712.417945,39.552 L712.417945,45.064 C712.417945,45.393335 712.344279,45.6316659 712.196945,45.779 C712.04961,45.9263341 711.811279,46 711.481945,46 L707.451945,46 C707.12261,46 706.884279,45.9263341 706.736945,45.779 C706.58961,45.6316659 706.515945,45.393335 706.515945,45.064 L706.515945,41.086 C706.515945,40.7046648 706.442279,40.4230009 706.294945,40.241 C706.14761,40.0589991 705.891946,39.968 705.527945,39.968 L701.887945,39.968 L701.887945,45.064 C701.887945,45.393335 701.814279,45.6316659 701.666945,45.779 C701.51961,45.9263341 701.281279,46 700.951945,46 Z M730.528389,46 L722.312389,46 C721.983054,46 721.744723,45.9263341 721.597389,45.779 C721.450055,45.6316659 721.376389,45.393335 721.376389,45.064 L721.376389,42.022 C721.376389,41.692665 721.450055,41.4543341 721.597389,41.307 C721.744723,41.1596659 721.983054,41.086 722.312389,41.086 L729.306389,41.086 C729.531723,41.086 729.700722,41.0123341 729.813389,40.865 C729.926056,40.7176659 729.982389,40.540001 729.982389,40.332 C729.982389,40.0373319 729.926056,39.8206674 729.813389,39.682 C729.700722,39.5433326 729.531723,39.4653334 729.306389,39.448 L725.406389,38.902 C724.19305,38.7286658 723.218059,38.3300031 722.481389,37.706 C721.744719,37.0819969 721.376389,36.0420073 721.376389,34.586 L721.376389,31.856 C721.376389,30.3826593 721.853051,29.2516706 722.806389,28.463 C723.759727,27.6743294 725.077047,27.28 726.758389,27.28 L734.038389,27.28 C734.367724,27.28 734.606055,27.3536659 734.753389,27.501 C734.900723,27.6483341 734.974389,27.886665 734.974389,28.216 L734.974389,31.31 C734.974389,31.639335 734.900723,31.8776659 734.753389,32.025 C734.606055,32.1723341 734.367724,32.246 734.038389,32.246 L727.980389,32.246 C727.755054,32.246 727.581723,32.3196659 727.460389,32.467 C727.339055,32.6143341 727.278389,32.8006655 727.278389,33.026 C727.278389,33.2513345 727.339055,33.4419992 727.460389,33.598 C727.581723,33.7540008 727.755054,33.8406666 727.980389,33.858 L731.854389,34.378 C733.067728,34.5513342 734.047052,34.9499969 734.792389,35.574 C735.537726,36.1980031 735.910389,37.2379927 735.910389,38.694 L735.910389,41.424 C735.910389,42.8973407 735.429394,44.0283294 734.467389,44.817 C733.505384,45.6056706 732.192397,46 730.528389,46 Z M751.530611,46 L745.186611,46 C743.019934,46 741.412283,45.566671 740.363611,44.7 C739.314939,43.833329 738.790611,42.4986757 738.790611,40.696 L738.790611,32.61 C738.790611,30.8073243 739.314939,29.4683377 740.363611,28.593 C741.412283,27.7176623 743.019934,27.28 745.186611,27.28 L751.530611,27.28 C751.859946,27.28 752.098277,27.3536659 752.245611,27.501 C752.392945,27.6483341 752.466611,27.886665 752.466611,28.216 L752.466611,31.362 C752.466611,31.691335 752.392945,31.9296659 752.245611,32.077 C752.098277,32.2243341 751.859946,32.298 751.530611,32.298 L746.304611,32.298 C745.767275,32.298 745.368612,32.4063322 745.108611,32.623 C744.84861,32.8396678 744.718611,33.1646645 744.718611,33.598 L744.718611,39.786 C744.718611,40.2193355 744.84861,40.5356657 745.108611,40.735 C745.368612,40.9343343 745.767275,41.034 746.304611,41.034 L751.530611,41.034 C751.859946,41.034 752.098277,41.1076659 752.245611,41.255 C752.392945,41.4023341 752.466611,41.640665 752.466611,41.97 L752.466611,45.064 C752.466611,45.393335 752.392945,45.6316659 752.245611,45.779 C752.098277,45.9263341 751.859946,46 751.530611,46 Z M756.256833,46 C755.927498,46 755.689167,45.9263341 755.541833,45.779 C755.394499,45.6316659 755.320833,45.393335 755.320833,45.064 L755.320833,41.97 C755.320833,41.640665 755.394499,41.4023341 755.541833,41.255 C755.689167,41.1076659 755.927498,41.034 756.256833,41.034 L758.830833,41.034 L758.830833,32.298 L756.256833,32.298 C755.927498,32.298 755.689167,32.2243341 755.541833,32.077 C755.394499,31.9296659 755.320833,31.691335 755.320833,31.362 L755.320833,28.216 C755.320833,27.886665 755.394499,27.6483341 755.541833,27.501 C755.689167,27.3536659 755.927498,27.28 756.256833,27.28 L767.332833,27.28 C767.662168,27.28 767.900499,27.3536659 768.047833,27.501 C768.195167,27.6483341 768.268833,27.886665 768.268833,28.216 L768.268833,31.362 C768.268833,31.691335 768.195167,31.9296659 768.047833,32.077 C767.900499,32.2243341 767.662168,32.298 767.332833,32.298 L764.810833,32.298 L764.810833,41.034 L767.332833,41.034 C767.662168,41.034 767.900499,41.1076659 768.047833,41.255 C768.195167,41.4023341 768.268833,41.640665 768.268833,41.97 L768.268833,45.064 C768.268833,45.393335 768.195167,45.6316659 768.047833,45.779 C767.900499,45.9263341 767.662168,46 767.332833,46 L756.256833,46 Z M780.483055,46 L772.267055,46 C771.937721,46 771.69939,45.9263341 771.552055,45.779 C771.404721,45.6316659 771.331055,45.393335 771.331055,45.064 L771.331055,42.022 C771.331055,41.692665 771.404721,41.4543341 771.552055,41.307 C771.69939,41.1596659 771.937721,41.086 772.267055,41.086 L779.261055,41.086 C779.48639,41.086 779.655388,41.0123341 779.768055,40.865 C779.880723,40.7176659 779.937055,40.540001 779.937055,40.332 C779.937055,40.0373319 779.880723,39.8206674 779.768055,39.682 C779.655388,39.5433326 779.48639,39.4653334 779.261055,39.448 L775.361055,38.902 C774.147716,38.7286658 773.172726,38.3300031 772.436055,37.706 C771.699385,37.0819969 771.331055,36.0420073 771.331055,34.586 L771.331055,31.856 C771.331055,30.3826593 771.807717,29.2516706 772.761055,28.463 C773.714394,27.6743294 775.031714,27.28 776.713055,27.28 L783.993055,27.28 C784.32239,27.28 784.560721,27.3536659 784.708055,27.501 C784.85539,27.6483341 784.929055,27.886665 784.929055,28.216 L784.929055,31.31 C784.929055,31.639335 784.85539,31.8776659 784.708055,32.025 C784.560721,32.1723341 784.32239,32.246 783.993055,32.246 L777.935055,32.246 C777.709721,32.246 777.536389,32.3196659 777.415055,32.467 C777.293722,32.6143341 777.233055,32.8006655 777.233055,33.026 C777.233055,33.2513345 777.293722,33.4419992 777.415055,33.598 C777.536389,33.7540008 777.709721,33.8406666 777.935055,33.858 L781.809055,34.378 C783.022395,34.5513342 784.001718,34.9499969 784.747055,35.574 C785.492393,36.1980031 785.865055,37.2379927 785.865055,38.694 L785.865055,41.424 C785.865055,42.8973407 785.38406,44.0283294 784.422055,44.817 C783.460051,45.6056706 782.147064,46 780.483055,46 Z M797.585278,46 L789.369278,46 C789.039943,46 788.801612,45.9263341 788.654278,45.779 C788.506944,45.6316659 788.433278,45.393335 788.433278,45.064 L788.433278,42.022 C788.433278,41.692665 788.506944,41.4543341 788.654278,41.307 C788.801612,41.1596659 789.039943,41.086 789.369278,41.086 L796.363278,41.086 C796.588612,41.086 796.75761,41.0123341 796.870278,40.865 C796.982945,40.7176659 797.039278,40.540001 797.039278,40.332 C797.039278,40.0373319 796.982945,39.8206674 796.870278,39.682 C796.75761,39.5433326 796.588612,39.4653334 796.363278,39.448 L792.463278,38.902 C791.249938,38.7286658 790.274948,38.3300031 789.538278,37.706 C788.801607,37.0819969 788.433278,36.0420073 788.433278,34.586 L788.433278,31.856 C788.433278,30.3826593 788.90994,29.2516706 789.863278,28.463 C790.816616,27.6743294 792.133936,27.28 793.815278,27.28 L801.095278,27.28 C801.424613,27.28 801.662944,27.3536659 801.810278,27.501 C801.957612,27.6483341 802.031278,27.886665 802.031278,28.216 L802.031278,31.31 C802.031278,31.639335 801.957612,31.8776659 801.810278,32.025 C801.662944,32.1723341 801.424613,32.246 801.095278,32.246 L795.037278,32.246 C794.811943,32.246 794.638612,32.3196659 794.517278,32.467 C794.395944,32.6143341 794.335278,32.8006655 794.335278,33.026 C794.335278,33.2513345 794.395944,33.4419992 794.517278,33.598 C794.638612,33.7540008 794.811943,33.8406666 795.037278,33.858 L798.911278,34.378 C800.124617,34.5513342 801.103941,34.9499969 801.849278,35.574 C802.594615,36.1980031 802.967278,37.2379927 802.967278,38.694 L802.967278,41.424 C802.967278,42.8973407 802.486282,44.0283294 801.524278,44.817 C800.562273,45.6056706 799.249286,46 797.585278,46 Z M821.9935,41.086 C821.9935,41.8833373 821.876501,42.6069968 821.6425,43.257 C821.408499,43.9070033 820.992503,44.4616644 820.3945,44.921 C819.796497,45.3803356 818.973172,45.7399987 817.9245,46 C816.875828,46.2600013 815.545508,46.39 813.9335,46.39 C812.321492,46.39 810.986838,46.2600013 809.9295,46 C808.872161,45.7399987 808.044503,45.3803356 807.4465,44.921 C806.848497,44.4616644 806.432501,43.9070033 806.1985,43.257 C805.964499,42.6069968 805.8475,41.8833373 805.8475,41.086 L805.8475,32.22 C805.8475,31.4226627 805.964499,30.6990033 806.1985,30.049 C806.432501,29.3989967 806.848497,28.8400023 807.4465,28.372 C808.044503,27.9039977 808.872161,27.5400013 809.9295,27.28 C810.986838,27.0199987 812.321492,26.89 813.9335,26.89 C815.545508,26.89 816.875828,27.0199987 817.9245,27.28 C818.973172,27.5400013 819.796497,27.9039977 820.3945,28.372 C820.992503,28.8400023 821.408499,29.3989967 821.6425,30.049 C821.876501,30.6990033 821.9935,31.4226627 821.9935,32.22 L821.9935,41.086 Z M811.7495,40.15 C811.7495,40.4966684 811.879499,40.7869988 812.1395,41.021 C812.399501,41.2550012 812.997495,41.372 813.9335,41.372 C814.869505,41.372 815.467499,41.2550012 815.7275,41.021 C815.987501,40.7869988 816.1175,40.4966684 816.1175,40.15 L816.1175,33.156 C816.1175,32.826665 815.987501,32.5450012 815.7275,32.311 C815.467499,32.0769988 814.869505,31.96 813.9335,31.96 C812.997495,31.96 812.399501,32.0769988 812.1395,32.311 C811.879499,32.5450012 811.7495,32.826665 811.7495,33.156 L811.7495,40.15 Z M831.503722,31.96 L831.503722,35.288 L833.453722,35.288 C833.904391,35.288 834.207721,35.1710012 834.363722,34.937 C834.519723,34.7029988 834.597722,34.4126684 834.597722,34.066 L834.597722,33.182 C834.597722,32.8353316 834.519723,32.5450012 834.363722,32.311 C834.207721,32.0769988 833.904391,31.96 833.453722,31.96 L831.503722,31.96 Z M830.567722,46 L826.563722,46 C826.234387,46 825.996056,45.9263341 825.848722,45.779 C825.701388,45.6316659 825.627722,45.393335 825.627722,45.064 L825.627722,28.216 C825.627722,27.886665 825.701388,27.6483341 825.848722,27.501 C825.996056,27.3536659 826.234387,27.28 826.563722,27.28 L835.221722,27.28 C837.163065,27.28 838.502052,27.682996 839.238722,28.489 C839.975392,29.295004 840.343722,30.3393269 840.343722,31.622 L840.343722,32.818 C840.343722,33.5460036 840.23539,34.1656641 840.018722,34.677 C839.802054,35.1883359 839.425058,35.5566655 838.887722,35.782 C839.823727,35.8860005 840.582052,36.26733 841.162722,36.926 C841.743392,37.58467 842.033722,38.4599945 842.033722,39.552 L842.033722,45.064 C842.033722,45.393335 841.960056,45.6316659 841.812722,45.779 C841.665388,45.9263341 841.427057,46 841.097722,46 L837.067722,46 C836.738387,46 836.500056,45.9263341 836.352722,45.779 C836.205388,45.6316659 836.131722,45.393335 836.131722,45.064 L836.131722,41.086 C836.131722,40.7046648 836.058056,40.4230009 835.910722,40.241 C835.763388,40.0589991 835.507724,39.968 835.143722,39.968 L831.503722,39.968 L831.503722,45.064 C831.503722,45.393335 831.430056,45.6316659 831.282722,45.779 C831.135388,45.9263341 830.897057,46 830.567722,46 Z M855.062166,45.316 C855.062166,45.5566679 855.008334,45.7308328 854.900666,45.8385 C854.792999,45.9461672 854.618834,46 854.378166,46 L851.490166,46 C851.249499,46 851.075334,45.9461672 850.967666,45.8385 C850.859999,45.7308328 850.806166,45.5566679 850.806166,45.316 L850.806166,43.283 C850.806166,42.7003304 850.856833,42.2633348 850.958166,41.972 C851.0595,41.6806652 851.249498,41.3386686 851.528166,40.946 L853.067166,38.875 L851.528166,36.804 C851.236832,36.4113314 851.043667,36.0693348 850.948666,35.778 C850.853666,35.4866652 850.806166,35.0496696 850.806166,34.467 L850.806166,33.004 C850.806166,32.7633321 850.859999,32.5891672 850.967666,32.4815 C851.075334,32.3738328 851.249499,32.32 851.490166,32.32 L854.416166,32.32 C854.656834,32.32 854.830999,32.3738328 854.938666,32.4815 C855.046334,32.5891672 855.100166,32.7633321 855.100166,33.004 L855.100166,34.315 C855.100166,34.4416673 855.1065,34.574666 855.119166,34.714 C855.131833,34.853334 855.182499,34.9863327 855.271166,35.113 L856.107166,36.31 C856.1705,36.4113338 856.236999,36.4904997 856.306666,36.5475 C856.376333,36.6045003 856.461833,36.633 856.563166,36.633 L856.791166,36.633 C856.8925,36.633 856.974833,36.6045003 857.038166,36.5475 C857.1015,36.4904997 857.171166,36.4113338 857.247166,36.31 L858.102166,35.113 C858.190834,34.9863327 858.2415,34.853334 858.254166,34.714 C858.266833,34.574666 858.273166,34.4416673 858.273166,34.315 L858.273166,33.004 C858.273166,32.7633321 858.326999,32.5891672 858.434666,32.4815 C858.542334,32.3738328 858.716499,32.32 858.957166,32.32 L861.845166,32.32 C862.085834,32.32 862.259999,32.3738328 862.367666,32.4815 C862.475334,32.5891672 862.529166,32.7633321 862.529166,33.004 L862.529166,34.467 C862.529166,35.0496696 862.4785,35.4866652 862.377166,35.778 C862.275833,36.0693348 862.085835,36.4113314 861.807166,36.804 L860.268166,38.894 L861.807166,40.946 C862.098501,41.3386686 862.291666,41.6806652 862.386666,41.972 C862.481667,42.2633348 862.529166,42.7003304 862.529166,43.283 L862.529166,45.316 C862.529166,45.5566679 862.475334,45.7308328 862.367666,45.8385 C862.259999,45.9461672 862.085834,46 861.845166,46 L858.957166,46 C858.716499,46 858.542334,45.9461672 858.434666,45.8385 C858.326999,45.7308328 858.273166,45.5566679 858.273166,45.316 L858.273166,43.435 C858.273166,43.3083327 858.266833,43.175334 858.254166,43.036 C858.2415,42.896666 858.190834,42.7636673 858.102166,42.637 L857.266166,41.44 C857.190166,41.3259994 857.1205,41.2436669 857.057166,41.193 C856.993833,41.1423331 856.9115,41.117 856.810166,41.117 L856.544166,41.117 C856.442833,41.117 856.3605,41.1423331 856.297166,41.193 C856.233833,41.2436669 856.164167,41.3259994 856.088166,41.44 L855.233166,42.637 C855.144499,42.7636673 855.093833,42.896666 855.081166,43.036 C855.0685,43.175334 855.062166,43.3083327 855.062166,43.435 L855.062166,45.316 Z M880.297611,46 L874.317611,46 C873.988276,46 873.749945,45.9263341 873.602611,45.779 C873.455277,45.6316659 873.381611,45.393335 873.381611,45.064 L873.381611,41.996 C873.381611,41.666665 873.455277,41.4283341 873.602611,41.281 C873.749945,41.1336659 873.988276,41.06 874.317611,41.06 L879.179611,41.06 C879.820947,41.06 880.254276,40.9603343 880.479611,40.761 C880.704945,40.5616657 880.817611,40.1413365 880.817611,39.5 L880.817611,38.928 C880.401609,39.0493339 879.920614,39.1446663 879.374611,39.214 C878.828608,39.2833337 878.208948,39.318 877.515611,39.318 C875.175599,39.318 873.572282,38.9236706 872.705611,38.135 C871.83894,37.3463294 871.405611,36.1806744 871.405611,34.638 L871.405611,32.142 C871.405611,31.3446627 871.513943,30.6253365 871.730611,29.984 C871.947279,29.3426635 872.337275,28.7923356 872.900611,28.333 C873.463947,27.8736644 874.230939,27.5183346 875.201611,27.267 C876.172282,27.0156654 877.402937,26.89 878.893611,26.89 C880.488285,26.89 881.792606,27.0156654 882.806611,27.267 C883.820616,27.5183346 884.613608,27.8736644 885.185611,28.333 C885.757614,28.7923356 886.151943,29.3426635 886.368611,29.984 C886.585279,30.6253365 886.693611,31.3446627 886.693611,32.142 L886.693611,40.67 C886.693611,42.2473412 886.238615,43.5299951 885.328611,44.518 C884.418606,45.5060049 882.741623,46 880.297611,46 Z M880.817611,34.092 L880.817611,32.558 C880.817611,32.2806653 880.713612,32.0510009 880.505611,31.869 C880.29761,31.6869991 879.820948,31.596 879.075611,31.596 C878.295607,31.596 877.801612,31.6869991 877.593611,31.869 C877.38561,32.0510009 877.281611,32.2806653 877.281611,32.558 L877.281611,34.092 C877.281611,34.3520013 877.38561,34.5729991 877.593611,34.755 C877.801612,34.9370009 878.295607,35.028 879.075611,35.028 C879.820948,35.028 880.29761,34.9370009 880.505611,34.755 C880.713612,34.5729991 880.817611,34.3520013 880.817611,34.092 Z M898.647833,46 L892.667833,46 C892.338498,46 892.100167,45.9263341 891.952833,45.779 C891.805499,45.6316659 891.731833,45.393335 891.731833,45.064 L891.731833,41.996 C891.731833,41.666665 891.805499,41.4283341 891.952833,41.281 C892.100167,41.1336659 892.338498,41.06 892.667833,41.06 L897.529833,41.06 C898.17117,41.06 898.604499,40.9603343 898.829833,40.761 C899.055167,40.5616657 899.167833,40.1413365 899.167833,39.5 L899.167833,38.928 C898.751831,39.0493339 898.270836,39.1446663 897.724833,39.214 C897.17883,39.2833337 896.55917,39.318 895.865833,39.318 C893.525821,39.318 891.922504,38.9236706 891.055833,38.135 C890.189162,37.3463294 889.755833,36.1806744 889.755833,34.638 L889.755833,32.142 C889.755833,31.3446627 889.864165,30.6253365 890.080833,29.984 C890.297501,29.3426635 890.687497,28.7923356 891.250833,28.333 C891.814169,27.8736644 892.581162,27.5183346 893.551833,27.267 C894.522505,27.0156654 895.753159,26.89 897.243833,26.89 C898.838508,26.89 900.142828,27.0156654 901.156833,27.267 C902.170838,27.5183346 902.96383,27.8736644 903.535833,28.333 C904.107836,28.7923356 904.502165,29.3426635 904.718833,29.984 C904.935501,30.6253365 905.043833,31.3446627 905.043833,32.142 L905.043833,40.67 C905.043833,42.2473412 904.588838,43.5299951 903.678833,44.518 C902.768828,45.5060049 901.091845,46 898.647833,46 Z M899.167833,34.092 L899.167833,32.558 C899.167833,32.2806653 899.063834,32.0510009 898.855833,31.869 C898.647832,31.6869991 898.17117,31.596 897.425833,31.596 C896.645829,31.596 896.151834,31.6869991 895.943833,31.869 C895.735832,32.0510009 895.631833,32.2806653 895.631833,32.558 L895.631833,34.092 C895.631833,34.3520013 895.735832,34.5729991 895.943833,34.755 C896.151834,34.9370009 896.645829,35.028 897.425833,35.028 C898.17117,35.028 898.647832,34.9370009 898.855833,34.755 C899.063834,34.5729991 899.167833,34.3520013 899.167833,34.092 Z" id="Rock-Paper-Scissor-x"></path>
        </g>
    </g>
</svg>