<?xml version="1.0" encoding="UTF-8"?>
<svg width="293px" height="85px" viewBox="0 0 293 85" version="1.1" xmlns="http://www.w3.org/2000/svg" xmlns:xlink="http://www.w3.org/1999/xlink">
    <!-- Generator: Sketch 46 (44423) - http://www.bohemiancoding.com/sketch -->
    <title>Banner</title>
    <desc>Created with Sketch.</desc>
    <defs></defs>
    <g id="Page-1" stroke="none" stroke-width="1" fill="none" fill-rule="evenodd">
        <g id="Mobile-Start-Screen-Copy" transform="translate(-14.000000, -173.000000)">
            <g id="Banner" transform="translate(14.000000, 173.000000)">
                <path d="M0.048828125,80.436587 C0.048828125,82.8991084 0.45776436,84.8984375 0.962717718,84.8984375 L43.84956,84.8984375 C44.3534772,84.8984375 44.7631042,82.8991084 44.7631042,80.436587 L44.7631042,25.8018423 C44.7631042,23.3385372 44.3534772,21.3415593 43.84956,21.3415593 L0.962717718,21.3415593 C0.45776436,21.3415593 0.048828125,23.3385372 0.048828125,25.8018423 L7.91048909,53.6694024 L0.048828125,80.436587" id="Fill-396" fill="#92402A"></path>
                <path d="M0.048828125,73.747338 C0.048828125,76.2098594 0.45776436,78.207621 0.962717718,78.207621 L43.84956,78.207621 C44.3534772,78.207621 44.7631042,76.2098594 44.7631042,73.747338 L44.7631042,19.1110259 C44.7631042,16.6492882 44.3534772,14.6523103 43.84956,14.6523103 L0.962717718,14.6523103 C0.45776436,14.6523103 0.048828125,16.6492882 0.048828125,19.1110259 L7.91048909,47.7490056 L0.048828125,73.747338" id="Fill-397" fill="#F7F5F3"></path>
                <polyline id="Fill-398" fill="#92402A" points="21.3349262 70.2557616 42.8168578 79.4192882 44.7821004 78.7241079 44.7821004 45.7606489 21.4634096 41.5104091 21.3349262 70.2557616"></polyline>
                <path d="M292.748047,80.436587 C292.748047,82.8991084 292.338765,84.8984375 291.834157,84.8984375 L248.947315,84.8984375 C248.443398,84.8984375 248.033771,82.8991084 248.033771,80.436587 L248.033771,25.8018423 C248.033771,23.3385372 248.443398,21.3415593 248.947315,21.3415593 L291.834157,21.3415593 C292.338765,21.3415593 292.748047,23.3385372 292.748047,25.8018423 L284.885695,53.6694024 L292.748047,80.436587" id="Fill-399" fill="#92402A"></path>
                <path d="M292.748047,73.747338 C292.748047,76.2098594 292.338765,78.207621 291.834157,78.207621 L248.947315,78.207621 C248.443398,78.207621 248.033771,76.2098594 248.033771,73.747338 L248.033771,19.1110259 C248.033771,16.6492882 248.443398,14.6523103 248.947315,14.6523103 L291.834157,14.6523103 C292.338765,14.6523103 292.748047,16.6492882 292.748047,19.1110259 L284.885695,47.7490056 L292.748047,73.747338" id="Fill-400" fill="#F7F5F3"></path>
                <polyline id="Fill-401" fill="#92402A" points="271.460913 70.2557616 249.979672 79.4192882 248.013393 78.7241079 248.013393 45.7606489 271.333811 41.5104091 271.460913 70.2557616"></polyline>
                <path d="M271.628295,65.9420386 C271.628295,68.40456 270.338378,70.4031054 268.745607,70.4031054 L24.0179812,70.4031054 C22.4267295,70.4031054 21.1352935,68.40456 21.1352935,65.9420386 L21.1352935,11.3065102 C21.1352935,8.84477254 22.4267295,6.84779464 24.0179812,6.84779464 L268.745607,6.84779464 C270.338378,6.84779464 271.628295,8.84477254 271.628295,11.3065102 L271.628295,65.9420386" id="Fill-402" fill="#92402A"></path>
                <path d="M271.628295,59.3209753 C271.628295,61.7842804 270.338378,63.7804746 268.745607,63.7804746 L24.0179812,63.7804746 C22.4267295,63.7804746 21.1352935,61.7842804 21.1352935,59.3209753 L21.1352935,4.68701439 C21.1352935,2.22449298 22.4267295,0.229082569 24.0179812,0.229082569 L268.745607,0.229082569 C270.338378,0.229082569 271.628295,2.22449298 271.628295,4.68701439 L271.628295,59.3209753" id="Fill-403" fill="#F7F5F3"></path>
            </g>
        </g>
    </g>
</svg>