<?xml version="1.0" encoding="UTF-8"?>
<svg width="99px" height="135px" viewBox="0 0 99 135" version="1.1" xmlns="http://www.w3.org/2000/svg" xmlns:xlink="http://www.w3.org/1999/xlink">
    <!-- Generator: Sketch 46 (44423) - http://www.bohemiancoding.com/sketch -->
    <title>Page 1</title>
    <desc>Created with Sketch.</desc>
    <defs>
        <filter x="-6.6%" y="-3.9%" width="115.4%" height="111.8%" filterUnits="objectBoundingBox" id="filter-1">
            <feOffset dx="1" dy="2" in="SourceAlpha" result="shadowOffsetOuter1"></feOffset>
            <feGaussianBlur stdDeviation="2" in="shadowOffsetOuter1" result="shadowBlurOuter1"></feGaussianBlur>
            <feColorMatrix values="0 0 0 0 0   0 0 0 0 0   0 0 0 0 0  0 0 0 0.5 0" type="matrix" in="shadowBlurOuter1" result="shadowMatrixOuter1"></feColorMatrix>
            <feMerge>
                <feMergeNode in="shadowMatrixOuter1"></feMergeNode>
                <feMergeNode in="SourceGraphic"></feMergeNode>
            </feMerge>
        </filter>
        <polygon id="path-2" points="91 127 0 127 0 2.00526939e-14 91 0"></polygon>
        <linearGradient x1="50%" y1="0%" x2="50%" y2="122.434793%" id="linearGradient-4">
            <stop stop-color="#C05B3F" offset="0%"></stop>
            <stop stop-color="#ED9148" offset="100%"></stop>
        </linearGradient>
        <path d="M59.3411056,31.794449 L59.3411056,6.45145663 L84.5782891,31.794449 L59.3411056,31.794449 Z M71.1924645,44.125875 L20.042202,44.125875 C19.2131408,44.125875 18.5386504,43.4485567 18.5386504,42.6160196 C18.5386504,41.7693718 19.2131408,41.1061643 20.042202,41.1061643 L71.1924645,41.1061643 C72.0201204,41.1061643 72.6932057,41.7693718 72.6932057,42.6160196 C72.6946109,43.4485567 72.0201204,44.125875 71.1924645,44.125875 L71.1924645,44.125875 Z M71.1924645,57.8119375 L20.042202,57.8119375 C19.2131408,57.8119375 18.5386504,57.1360303 18.5386504,56.3034933 C18.5386504,55.4709562 19.2131408,54.7936379 20.042202,54.7936379 L71.1924645,54.7936379 C72.0201204,54.7936379 72.6932057,55.4709562 72.6932057,56.3034933 C72.6946109,57.1360303 72.0201204,57.8119375 71.1924645,57.8119375 L71.1924645,57.8119375 Z M71.0744287,71.8550032 L19.9255713,71.8550032 C19.0965102,71.8550032 18.423425,71.1776849 18.423425,70.3451479 C18.4220198,69.5111998 19.0965102,68.8352925 19.9255713,68.8352925 L71.0744287,68.8352925 C71.9034898,68.8352925 72.5779802,69.5111998 72.5779802,70.3451479 C72.5779802,71.1776849 71.9034898,71.8550032 71.0744287,71.8550032 L71.0744287,71.8550032 Z M71.0744287,85.5424768 L19.9255713,85.5424768 C19.0965102,85.5424768 18.423425,84.8792693 18.423425,84.0326215 C18.4220198,83.2000844 19.0965102,82.5227662 19.9255713,82.5227662 L71.0744287,82.5227662 C71.9034898,82.5227662 72.5779802,83.2000844 72.5779802,84.0326215 C72.5779802,84.8792693 71.9034898,85.5424768 71.0744287,85.5424768 L71.0744287,85.5424768 Z M90.9859481,33.6429635 L90.9859481,33.528666 L90.9859481,33.4736339 C90.9718962,33.4171907 90.9718962,33.3762694 90.9578443,33.3198262 L90.9578443,33.2901936 C90.9437925,33.2478612 90.9297406,33.2055288 90.9156887,33.1490856 C90.9156887,33.1349748 90.9016368,33.1180418 90.9016368,33.1067532 C90.8875849,33.0644208 90.873533,33.0220884 90.8594812,32.9938668 C90.8594812,32.979756 90.8454293,32.9656452 90.8454293,32.9374236 C90.8173255,32.8950912 90.8032736,32.838648 90.7751699,32.7963156 L90.761118,32.7822048 C90.7470661,32.7398724 90.7189623,32.696129 90.6908586,32.6537966 C90.6768067,32.6396858 90.6627548,32.625575 90.6627548,32.6128753 C90.634651,32.5705429 90.6065473,32.5409102 90.5924954,32.5140997 C90.5784435,32.4999889 90.5643916,32.484467 90.5503397,32.4703562 C90.5222359,32.430846 90.4800803,32.3871025 90.4519765,32.3588809 C90.4519765,32.3447701 90.4379246,32.3447701 90.4379246,32.3447701 L58.7930821,0.553143263 C58.7368746,0.512221951 58.694719,0.468478478 58.6525633,0.426146086 C58.6385114,0.426146086 58.6244595,0.412035288 58.6104077,0.397924491 C58.568252,0.368291816 58.5401482,0.3414813 58.4979926,0.327370503 C58.4698888,0.297737828 58.4417851,0.297737828 58.4277332,0.28503811 C58.3996294,0.255405435 58.3715256,0.242705718 58.3434219,0.22859492 C58.3153181,0.214484123 58.2872143,0.198962245 58.2591106,0.186262527 C58.2310068,0.17356281 58.202903,0.158040932 58.1747993,0.143930135 C58.1466955,0.143930135 58.1185917,0.129819337 58.090488,0.11570854 C58.0623842,0.101597742 58.0342804,0.101597742 58.0061767,0.086075865 C57.9780729,0.0719650674 57.9359172,0.0719650674 57.9078135,0.0578542699 C57.8797097,0.0578542699 57.8516059,0.0437434724 57.8235022,0.0437434724 C57.7813465,0.0282215951 57.7532427,0.0282215951 57.7110871,0.0282215951 C57.6970352,0.0141107975 57.6689314,0.0141107975 57.6408277,0.0141107975 C57.5846201,0.0141107975 57.5143607,0 57.4581532,0 L1.88295244,0 C0.843113033,0 0,0.846647852 0,1.89084687 L0,125.109153 C0,126.153352 0.843113033,127 1.88295244,127 L89.1170476,127 C90.156887,127 91,126.153352 91,125.109153 L91,33.6852959 C91,33.6711851 90.9859481,33.6556632 90.9859481,33.6429635 L90.9859481,33.6429635 Z" id="path-5"></path>
        <filter x="-7.7%" y="-3.9%" width="115.4%" height="111.0%" filterUnits="objectBoundingBox" id="filter-6">
            <feOffset dx="0" dy="2" in="SourceAlpha" result="shadowOffsetOuter1"></feOffset>
            <feGaussianBlur stdDeviation="2" in="shadowOffsetOuter1" result="shadowBlurOuter1"></feGaussianBlur>
            <feColorMatrix values="0 0 0 0 0   0 0 0 0 0   0 0 0 0 0  0 0 0 0.5 0" type="matrix" in="shadowBlurOuter1"></feColorMatrix>
        </filter>
    </defs>
    <g id="Page-1" stroke="none" stroke-width="1" fill="none" fill-rule="evenodd">
        <g id="Player-1-screen" transform="translate(-672.000000, -480.000000)">
            <g id="Page-1" filter="url(#filter-1)" transform="translate(675.000000, 482.000000)">
                <mask id="mask-3" fill="white">
                    <use xlink:href="#path-2"></use>
                </mask>
                <g id="Clip-2"></g>
                <g id="Fill-1" mask="url(#mask-3)">
                    <use fill="black" fill-opacity="1" filter="url(#filter-6)" xlink:href="#path-5"></use>
                    <use fill="url(#linearGradient-4)" fill-rule="evenodd" xlink:href="#path-5"></use>
                </g>
            </g>
        </g>
    </g>
</svg>