<?xml version="1.0" encoding="UTF-8"?>
<svg width="84px" height="152px" viewBox="0 0 84 152" version="1.1" xmlns="http://www.w3.org/2000/svg" xmlns:xlink="http://www.w3.org/1999/xlink">
    <!-- Generator: Sketch 46 (44423) - http://www.bohemiancoding.com/sketch -->
    <title>Fill 1</title>
    <desc>Created with Sketch.</desc>
    <defs>
        <linearGradient x1="121.80221%" y1="79.6298948%" x2="50%" y2="100%" id="linearGradient-1">
            <stop stop-color="#ED9148" offset="0%"></stop>
            <stop stop-color="#C05B3F" offset="100%"></stop>
        </linearGradient>
        <path d="M1120.87574,523.086263 C1120.87574,528.010016 1116.63882,532.000753 1111.41357,532.000753 C1106.18744,532.000753 1101.9514,528.009124 1101.9514,523.086263 C1101.9514,518.161617 1106.18744,514.17088 1111.41357,514.17088 C1116.63882,514.17088 1120.87574,518.161617 1120.87574,523.086263 Z M1104.61755,568.718393 C1104.61755,573.643038 1108.91869,577.830012 1114.14483,577.830012 C1119.37097,577.830012 1123.60789,573.837491 1123.60789,568.913737 C1123.60789,563.989984 1119.37007,559.999247 1114.14483,559.999247 C1108.91959,559.999247 1104.61755,563.795532 1104.61755,568.718393 Z M1064.23385,560.300738 L988.73006,574.436904 L1037.21119,553.209463 L1064.23385,560.300738 Z M1100.77131,561.495104 C1103.47045,557.185037 1107.01163,554.293224 1114.14483,554.293224 C1121.27892,554.293224 1129.40311,559.733436 1129.53334,568.589055 C1129.66357,577.445567 1122.71591,583.535143 1114.14483,583.535143 C1102.8309,583.535143 1097.89466,572.941046 1098.77148,566.916585 L983.535143,536.985161 L1060.19316,538.974286 L1071.26269,554.684805 L1100.77131,561.495104 Z M1055.59944,550.586137 C1055.59944,552.108754 1057.09262,553.344152 1058.93368,553.344152 C1060.77474,553.344152 1062.26792,552.108754 1062.26792,550.586137 C1062.26792,549.06352 1060.77563,547.829014 1058.93368,547.829014 C1057.09262,547.829014 1055.59944,549.06352 1055.59944,550.586137 Z M1096.56204,527.337459 L1065.29977,541.923186 L1071.23147,550.147281 L1075.6236,542.371854 L1099.10152,531.985589 C1101.93892,535.463436 1104.62022,537.705884 1111.41357,537.705884 C1118.20603,537.705884 1126.93142,532.851706 1126.80119,523.084479 C1126.67186,513.319035 1119.98465,508.464857 1111.41357,508.464857 C1102.92545,508.464857 1092.96556,516.655948 1096.56204,527.337459 Z" id="path-2"></path>
        <filter x="-4.8%" y="-6.7%" width="109.6%" height="118.6%" filterUnits="objectBoundingBox" id="filter-3">
            <feOffset dx="0" dy="2" in="SourceAlpha" result="shadowOffsetOuter1"></feOffset>
            <feGaussianBlur stdDeviation="2" in="shadowOffsetOuter1" result="shadowBlurOuter1"></feGaussianBlur>
            <feColorMatrix values="0 0 0 0 0   0 0 0 0 0   0 0 0 0 0  0 0 0 0.5 0" type="matrix" in="shadowBlurOuter1"></feColorMatrix>
        </filter>
    </defs>
    <g id="Page-1" stroke="none" stroke-width="1" fill="none" fill-rule="evenodd">
        <g id="Player-1-screen" transform="translate(-1010.000000, -470.000000)">
            <g id="Fill-1" transform="translate(1056.535143, 546.000000) rotate(-267.000000) translate(-1056.535143, -546.000000) ">
                <use fill="black" fill-opacity="1" filter="url(#filter-3)" xlink:href="#path-2"></use>
                <use fill="url(#linearGradient-1)" fill-rule="evenodd" xlink:href="#path-2"></use>
            </g>
        </g>
    </g>
</svg>