<svg xmlns="http://www.w3.org/2000/svg" xmlns:xlink="http://www.w3.org/1999/xlink" width="195" height="81" version="1.1" viewBox="0 0 195 81"><title>Group 2</title><desc>Created with Sketch.</desc><g id="Page-1" fill="none" fill-rule="evenodd" stroke="none" stroke-width="1"><g id="Play-Again-Screen" fill="#F7C63E" transform="translate(-626.000000, -136.000000)"><g id="Group-2" transform="translate(626.000000, 136.000000)"><polyline id="Fill-389" points="97.501 0 107.57 20.407 130.096 23.682 113.796 39.567 117.645 62 97.501 51.41 77.354 62 81.202 39.567 64.904 23.682 87.429 20.407 97.501 0"/><polyline id="Fill-389-Copy" points="171.501 36 178.76 50.712 195 53.073 183.249 64.525 186.023 80.698 171.501 73.063 156.976 80.698 159.751 64.525 148 53.073 164.239 50.712 171.501 36"/><polyline id="Fill-389-Copy-2" points="23.501 36 30.76 50.712 47 53.073 35.249 64.525 38.023 80.698 23.501 73.063 8.976 80.698 11.751 64.525 0 53.073 16.239 50.712 23.501 36"/></g></g></g></svg>