<?xml version="1.0" encoding="UTF-8"?>
<svg width="195px" height="81px" viewBox="0 0 195 81" version="1.1" xmlns="http://www.w3.org/2000/svg" xmlns:xlink="http://www.w3.org/1999/xlink">
    <!-- Generator: Sketch 46 (44423) - http://www.bohemiancoding.com/sketch -->
    <title>Group 2</title>
    <desc>Created with Sketch.</desc>
    <defs></defs>
    <g id="Page-1" stroke="none" stroke-width="1" fill="none" fill-rule="evenodd">
        <g id="Play-Again-Screen" transform="translate(-626.000000, -136.000000)" fill="#F7C63E">
            <g id="Group-2" transform="translate(626.000000, 136.000000)">
                <polyline id="Fill-389" points="97.5009929 0 107.570204 20.4069134 130.09645 23.6820284 113.796338 39.5670907 117.644976 62 97.5009929 51.4100908 77.3538328 62 81.2024702 39.5670907 64.9035502 23.6820284 87.4290016 20.4069134 97.5009929 0"></polyline>
                <polyline id="Fill-389-Copy" points="171.500716 36 178.759987 50.7121073 195 53.0732602 183.24864 64.5253958 186.023267 80.6981193 171.500716 73.0634576 156.975874 80.6981193 159.750501 64.5253958 148 53.0732602 164.23944 50.7121073 171.500716 36"></polyline>
                <polyline id="Fill-389-Copy-2" points="23.5007158 36 30.7599868 50.7121073 47 53.0732602 35.2486399 64.5253958 38.0232666 80.6981193 23.5007158 73.0634576 8.9758744 80.6981193 11.7505011 64.5253958 0 53.0732602 16.2394405 50.7121073 23.5007158 36"></polyline>
            </g>
        </g>
    </g>
</svg>